# xmcd CD database file
#
# Track frame offsets:
#	150
#	15338
#	32335
#	50355
#	67508
#	88558
#	108180
#	127620
#	148808
#	171418
#	192638
#	210758
#	229713
#	247863
#	265608
#
# Disc length: 3777 seconds
#
# Revision: 4
# Processed by: cddbd v1.5.2PL0 Copyright (c) Steve Scherf et al.
# Submitted via: CDex 1.51
#
DISCID=ae0ebf0f
DTITLE=Various Artist - Romantic Guitar Hits - Vol.4 - Francisco Garcia
DYEAR=2006
DGENRE=Ambient
TTITLE0=Blue eyes
TTITLE1=I just call to say I love you
TTITLE2=Song for guy
TTITLE3=Woman in love
TTITLE4=Love of the future
TTITLE5=Nothing compares to you
TTITLE6=Still got the blues
TTITLE7=Dreaming
TTITLE8=You and me in paradise
TTITLE9=A rainy day
TTITLE10=Sweet rendez-vous
TTITLE11=Waiting for a girl like you
TTITLE12=More than I can bear
TTITLE13=Back to San Francisco
TTITLE14=Everytime you go away
EXTD=YEAR: 2006
EXTT0=
EXTT1=
EXTT2=
EXTT3=
EXTT4=
EXTT5=
EXTT6=
EXTT7=
EXTT8=
EXTT9=
EXTT10=
EXTT11=
EXTT12=
EXTT13=
EXTT14=
PLAYORDER=
